<svg width="103" height="23" viewBox="0 0 103 23" fill="none" xmlns="http://www.w3.org/2000/svg">
<path fill-rule="evenodd" clip-rule="evenodd" d="M5.13165 13.1602L4.13638 15.0336V21.3273H0.916382V0.83637H4.13638V9.76455L8.35165 0.83637H11.5717L7.09293 9.96946L11.5717 21.3273H8.26384L5.13165 13.1602ZM16.1173 16.6144C16.1173 17.3559 16.2685 17.878 16.571 18.1805C16.8735 18.4829 17.2784 18.6342 17.7858 18.6342C18.2932 18.6342 18.6982 18.4829 19.0007 18.1805C19.3031 17.878 19.4544 17.3559 19.4544 16.6144V5.54928C19.4544 4.8077 19.3031 4.28567 19.0007 3.98319C18.6982 3.6807 18.2932 3.52946 17.7858 3.52946C17.2784 3.52946 16.8735 3.6807 16.571 3.98319C16.2685 4.28567 16.1173 4.8077 16.1173 5.54928V16.6144ZM12.8973 5.75419C12.8973 4.09539 13.3169 2.82204 14.156 1.9341C14.9952 1.04615 16.2051 0.602188 17.7858 0.602188C19.3666 0.602188 20.5765 1.04615 21.4157 1.9341C22.2548 2.82204 22.6744 4.09539 22.6744 5.75419V16.4095C22.6744 18.0683 22.2548 19.3416 21.4157 20.2296C20.5765 21.1175 19.3666 21.5615 17.7858 21.5615C16.2051 21.5615 14.9952 21.1175 14.156 20.2296C13.3169 19.3416 12.8973 18.0683 12.8973 16.4095V5.75419ZM27.9518 6.48601V21.3273H25.0538V0.83637H29.0935L32.4013 13.1016V0.83637H35.27V21.3273H31.9622L27.9518 6.48601ZM37.5031 5.75419C37.5031 4.09539 37.8983 2.82204 38.6887 1.9341C39.479 1.04615 40.6646 0.602188 42.2453 0.602188C43.826 0.602188 45.0116 1.04615 45.8019 1.9341C46.5923 2.82204 46.9875 4.09539 46.9875 5.75419V6.39819H43.9431V5.54928C43.9431 4.8077 43.8016 4.28567 43.5187 3.98319C43.2357 3.6807 42.8405 3.52946 42.3331 3.52946C41.8257 3.52946 41.4305 3.6807 41.1476 3.98319C40.8646 4.28567 40.7231 4.8077 40.7231 5.54928C40.7231 6.25183 40.8792 6.87143 41.1915 7.4081C41.5037 7.94477 41.894 8.45216 42.3624 8.93028C42.8307 9.4084 43.3333 9.88652 43.8699 10.3646C44.4066 10.8428 44.9091 11.3648 45.3775 11.9307C45.8458 12.4967 46.2361 13.1407 46.5484 13.8627C46.8606 14.5848 47.0167 15.4337 47.0167 16.4095C47.0167 18.0683 46.6118 19.3416 45.8019 20.2296C44.992 21.1175 43.7968 21.5615 42.216 21.5615C40.6353 21.5615 39.44 21.1175 38.6301 20.2296C37.8202 19.3416 37.4153 18.0683 37.4153 16.4095V15.1507H40.4597V16.6144C40.4597 17.3559 40.6109 17.8731 40.9134 18.1658C41.2159 18.4586 41.6208 18.6049 42.1282 18.6049C42.6356 18.6049 43.0405 18.4586 43.343 18.1658C43.6455 17.8731 43.7967 17.3559 43.7967 16.6144C43.7967 15.9118 43.6406 15.2922 43.3284 14.7556C43.0161 14.2189 42.6258 13.7115 42.1575 13.2334C41.6891 12.7552 41.1866 12.2771 40.6499 11.799C40.1133 11.3209 39.6107 10.7989 39.1424 10.2329C38.674 9.66697 38.2837 9.02298 37.9715 8.30092C37.6592 7.57885 37.5031 6.72995 37.5031 5.75419ZM48.2546 0.83637H58.2073V3.76364H54.8409V21.3273H51.6209V3.76364H48.2546V0.83637ZM66.6755 21.3273C66.6364 21.1907 66.5974 21.0638 66.5584 20.9467C66.5193 20.8296 66.4852 20.6833 66.4559 20.5076C66.4267 20.332 66.4071 20.1076 66.3974 19.8344C66.3876 19.5612 66.3827 19.2196 66.3827 18.8098V15.5898C66.3827 14.6336 66.2169 13.9603 65.8851 13.57C65.5533 13.1797 65.0167 12.9846 64.2751 12.9846H63.1627V21.3273H59.9427V0.83637H64.802C66.4803 0.83637 67.6951 1.22667 68.4465 2.00728C69.1978 2.78789 69.5735 3.96854 69.5735 5.54928V7.15928C69.5735 9.26693 68.8709 10.6525 67.4658 11.316C68.2855 11.6478 68.8465 12.1893 69.149 12.9406C69.4515 13.692 69.6027 14.6043 69.6027 15.6776V18.8391C69.6027 19.3465 69.6223 19.7905 69.6613 20.171C69.7003 20.5516 69.7979 20.937 69.954 21.3273H66.6755ZM63.1627 3.76364V10.0573H64.4215C65.0264 10.0573 65.4997 9.90116 65.8412 9.58891C66.1827 9.27667 66.3535 8.71074 66.3535 7.8911V5.87128C66.3535 5.1297 66.2217 4.59304 65.9583 4.26128C65.6948 3.92952 65.2801 3.76364 64.7142 3.76364H63.1627ZM75.1144 0.83637V16.6436C75.1144 17.3852 75.2656 17.9024 75.5681 18.1951C75.8706 18.4878 76.2755 18.6342 76.7829 18.6342C77.2903 18.6342 77.6953 18.4878 77.9977 18.1951C78.3002 17.9024 78.4515 17.3852 78.4515 16.6436V0.83637H81.4958V16.4387C81.4958 18.0975 81.0909 19.3709 80.281 20.2588C79.4711 21.1468 78.2758 21.5907 76.6951 21.5907C75.1144 21.5907 73.9191 21.1468 73.1092 20.2588C72.2993 19.3709 71.8944 18.0975 71.8944 16.4387V0.83637H75.1144ZM92.8202 0.83637H102.773V3.76364H99.4066V21.3273H96.1866V3.76364H92.8202V0.83637Z" fill="white"/>
<path fill-rule="evenodd" clip-rule="evenodd" d="M83.0254 11.4851L91.389 1.03058V21.9397L83.0254 11.4851Z" fill="#00A4E5"/>
</svg>
